<svg xmlns="http://www.w3.org/2000/svg" width="400" height="400" viewBox="0, 0, 400, 400">
	<circle cx="200" cy="200" r="180" fill="#000000" />
	<path d="M183.200 81.559 C 183.200 81.751,183.650 82.203,184.200 82.563 C 184.750 82.924,185.200 83.564,185.200 83.987 C 185.200 84.416,185.729 85.067,186.400 85.463 C 187.216 85.946,187.530 86.389,187.383 86.852 C 187.265 87.227,187.355 87.648,187.584 87.790 C 188.257 88.206,188.062 89.420,187.197 90.202 C 186.756 90.602,186.441 91.215,186.497 91.564 C 186.561 91.960,186.260 92.248,185.700 92.328 C 184.134 92.550,184.525 94.000,186.151 94.000 C 187.683 94.000,188.541 94.768,188.149 95.788 C 187.969 96.257,188.223 96.753,188.942 97.339 C 190.318 98.459,190.077 101.038,188.543 101.622 C 188.024 101.819,187.600 102.144,187.600 102.343 C 187.600 102.543,187.195 102.819,186.700 102.956 L 185.800 103.205 186.672 103.903 C 188.008 104.972,187.786 107.606,186.300 108.317 C 185.650 108.628,185.200 109.166,185.200 109.632 C 185.200 110.776,183.389 111.375,181.853 110.739 C 180.927 110.355,180.616 110.351,180.493 110.721 C 180.238 111.485,178.868 111.275,178.400 110.400 C 177.351 108.439,176.461 109.614,177.362 111.771 C 178.028 113.366,177.618 114.000,175.920 114.000 C 175.181 114.000,174.800 114.208,174.800 114.613 C 174.800 114.949,174.529 115.329,174.197 115.457 C 173.324 115.792,171.600 114.524,171.600 113.547 C 171.600 112.182,170.014 110.804,169.023 111.307 C 168.570 111.537,167.961 111.831,167.669 111.962 C 166.679 112.406,167.167 112.999,168.687 113.200 C 170.109 113.388,170.212 113.496,170.400 115.000 C 170.573 116.383,170.722 116.583,171.500 116.475 C 171.995 116.406,172.400 116.541,172.400 116.775 C 172.400 117.009,172.676 117.200,173.013 117.200 C 173.916 117.200,174.160 118.248,173.582 119.644 C 173.160 120.662,173.167 120.932,173.622 121.213 C 174.079 121.496,174.056 121.793,173.482 122.998 C 173.103 123.792,172.623 124.338,172.415 124.209 C 171.652 123.738,169.926 124.473,170.113 125.189 C 170.386 126.233,168.910 127.017,168.062 126.280 C 167.698 125.963,167.175 125.786,166.900 125.886 C 166.332 126.091,166.212 127.200,166.758 127.200 C 166.954 127.200,167.695 127.741,168.403 128.403 L 169.691 129.606 168.611 131.021 C 167.856 132.011,167.652 132.581,167.930 132.918 C 168.651 133.789,167.987 135.548,166.693 136.193 C 165.294 136.891,163.761 136.984,163.396 136.393 C 163.258 136.170,162.969 136.095,162.755 136.228 C 162.540 136.360,162.095 136.245,161.766 135.971 C 161.087 135.408,160.552 135.790,160.335 136.992 C 160.139 138.077,158.214 138.726,157.156 138.065 C 156.712 137.788,156.010 137.670,155.594 137.802 C 155.005 137.989,154.654 137.683,154.011 136.421 C 153.556 135.529,153.007 134.800,152.792 134.800 C 152.576 134.800,152.400 134.440,152.400 134.000 C 152.400 132.973,151.751 132.971,151.202 133.996 C 150.883 134.592,150.603 134.700,150.088 134.425 C 149.710 134.223,149.077 133.958,148.683 133.835 C 148.095 133.652,148.045 133.464,148.405 132.791 C 149.170 131.361,148.295 130.011,146.919 130.500 C 146.764 130.555,146.660 131.600,146.688 132.823 C 146.750 135.618,146.035 136.256,143.577 135.594 C 141.867 135.133,141.200 135.308,141.200 136.216 C 141.200 136.853,139.474 137.421,138.701 137.039 C 136.916 136.157,135.783 135.231,135.677 134.568 C 135.609 134.145,135.446 133.530,135.315 133.200 C 135.092 132.636,135.008 132.311,134.861 131.438 C 134.827 131.239,134.477 131.369,134.082 131.726 C 132.944 132.756,130.460 132.201,130.146 130.847 C 130.013 130.271,129.682 129.619,129.410 129.398 C 128.534 128.686,128.334 127.353,129.017 126.786 C 129.415 126.456,129.567 125.921,129.424 125.354 C 129.299 124.856,129.378 124.337,129.599 124.201 C 130.577 123.596,130.005 122.735,128.800 123.000 C 127.799 123.220,127.600 123.139,127.600 122.512 C 127.600 122.098,127.379 121.539,127.108 121.268 C 126.719 120.879,126.855 120.586,127.760 119.865 C 128.640 119.163,128.839 118.752,128.624 118.077 C 128.276 116.980,127.200 116.922,127.200 118.000 C 127.200 118.533,126.933 118.800,126.400 118.800 C 125.852 118.800,125.600 119.067,125.600 119.647 C 125.600 120.329,125.426 120.447,124.700 120.252 C 124.205 120.119,123.474 120.008,123.076 120.005 C 122.678 120.002,122.452 119.839,122.574 119.642 C 123.030 118.904,121.604 116.299,121.012 116.790 C 120.598 117.134,120.258 117.118,119.631 116.727 C 118.740 116.170,118.549 115.402,119.201 114.999 C 119.422 114.863,119.501 114.346,119.377 113.851 C 119.203 113.156,119.385 112.844,120.176 112.484 C 120.881 112.163,121.200 111.703,121.200 111.009 C 121.200 110.454,121.380 110.000,121.600 110.000 C 121.820 110.000,122.000 109.628,122.000 109.173 C 122.000 108.546,121.818 108.404,121.250 108.584 C 120.715 108.754,120.438 108.589,120.287 108.011 C 120.170 107.565,119.767 107.200,119.391 107.200 C 118.864 107.200,118.772 107.407,118.991 108.100 C 119.838 110.783,119.372 112.088,117.533 112.186 C 116.900 112.220,116.781 112.780,117.248 113.529 C 117.642 114.160,117.647 114.461,117.269 114.917 C 117.003 115.237,116.893 115.778,117.024 116.119 C 117.330 116.915,116.025 117.636,114.838 117.326 C 114.348 117.198,113.523 117.320,113.005 117.598 C 111.586 118.356,110.134 117.804,109.383 116.220 C 108.986 115.385,108.392 114.798,107.865 114.723 C 107.200 114.628,107.000 114.325,107.000 113.409 C 107.000 111.765,105.918 111.622,105.327 113.187 C 104.761 114.687,103.796 115.101,102.854 114.249 C 102.050 113.521,101.200 113.393,101.200 114.000 C 101.200 114.835,100.019 114.350,99.178 113.169 C 98.530 112.259,98.419 111.821,98.751 111.489 C 99.476 110.764,99.270 109.265,98.380 108.789 C 97.421 108.276,97.523 106.391,98.571 105.232 C 98.917 104.850,99.200 104.141,99.200 103.656 C 99.200 103.171,99.470 102.671,99.800 102.545 C 100.963 102.099,100.498 101.115,99.254 101.388 C 97.817 101.704,97.189 99.799,98.215 98.234 C 98.805 97.333,98.657 96.000,97.967 96.000 C 97.777 96.000,97.341 96.540,97.000 97.200 C 96.329 98.498,94.400 98.950,94.400 97.809 C 94.400 96.718,92.640 95.908,91.449 96.450 C 90.078 97.075,90.123 97.445,91.607 97.741 C 92.403 97.901,92.944 98.326,93.197 98.991 C 93.425 99.592,93.895 100.000,94.357 100.000 C 95.742 100.000,96.400 100.465,96.400 101.443 C 96.400 101.969,96.568 102.400,96.773 102.400 C 97.727 102.400,97.618 104.063,96.584 105.292 C 95.926 106.075,95.688 106.629,95.971 106.724 C 96.652 106.951,95.689 108.000,94.800 108.000 C 94.414 108.000,93.874 108.270,93.600 108.600 C 93.185 109.100,93.239 109.200,93.927 109.200 C 94.381 109.200,94.869 109.387,95.010 109.616 C 95.152 109.845,95.570 109.937,95.939 109.819 C 97.044 109.469,97.654 110.874,96.970 112.192 C 96.268 113.545,96.268 113.600,96.951 113.600 C 98.506 113.600,99.302 116.587,97.845 116.953 C 97.187 117.118,96.905 117.407,97.045 117.773 C 97.373 118.628,96.045 119.103,93.666 118.983 C 91.595 118.878,91.539 118.903,91.772 119.831 C 92.286 121.880,91.014 122.374,86.100 122.035 C 85.825 122.016,85.600 121.739,85.600 121.421 C 85.600 121.102,85.159 120.366,84.621 119.784 C 83.639 118.725,82.800 118.743,82.800 119.824 C 82.800 120.141,82.608 120.400,82.374 120.400 C 81.453 120.400,80.400 119.532,80.400 118.773 C 80.400 118.334,80.139 117.875,79.819 117.752 C 78.751 117.342,78.475 117.944,79.018 119.495 C 79.753 121.598,78.833 122.649,76.860 121.961 C 75.750 121.574,75.481 121.610,75.049 122.201 C 74.408 123.078,72.800 122.255,72.800 121.050 C 72.800 119.849,70.774 118.145,70.318 118.961 C 70.121 119.313,69.699 119.600,69.380 119.600 C 68.293 119.600,68.796 120.376,70.100 120.712 C 71.183 120.990,71.421 121.260,71.525 122.323 C 71.594 123.025,71.864 123.606,72.125 123.613 C 73.393 123.647,74.168 124.751,73.468 125.525 C 73.100 125.931,72.800 126.463,72.800 126.708 C 72.800 127.398,72.042 127.709,70.247 127.756 C 68.881 127.793,68.600 127.937,68.600 128.600 C 68.600 129.210,68.292 129.430,67.300 129.525 C 65.782 129.672,65.606 130.441,66.895 131.296 C 67.664 131.807,67.714 131.981,67.250 132.540 C 66.926 132.930,66.812 133.592,66.963 134.195 C 67.287 135.488,68.400 135.530,68.400 134.249 C 68.400 133.726,68.651 133.089,68.959 132.834 C 69.266 132.579,69.447 132.062,69.360 131.685 C 69.057 130.364,70.572 129.191,72.670 129.124 C 75.165 129.044,75.312 128.943,74.574 127.817 C 74.000 126.940,74.018 126.833,74.831 126.263 C 75.343 125.905,75.610 125.404,75.476 125.055 C 75.085 124.034,76.252 123.471,78.206 123.739 C 79.794 123.957,80.000 123.897,80.000 123.216 C 80.000 121.504,83.966 121.041,84.828 122.652 C 85.107 123.173,85.575 123.600,85.868 123.600 C 86.160 123.600,86.400 123.960,86.400 124.400 C 86.400 125.439,87.609 125.454,87.879 124.418 C 88.044 123.788,88.326 123.678,89.342 123.853 C 91.633 124.247,91.705 124.312,91.436 125.751 C 91.098 127.549,91.486 128.400,92.643 128.400 C 93.675 128.400,93.901 127.661,93.110 126.870 C 92.723 126.483,92.729 126.205,93.137 125.552 C 93.571 124.858,93.553 124.611,93.027 124.030 C 92.212 123.129,92.249 122.813,93.314 121.553 C 94.376 120.297,97.280 119.732,98.030 120.636 C 98.755 121.510,99.249 120.866,98.974 119.403 C 98.769 118.310,98.875 117.988,99.562 117.620 C 100.023 117.374,100.400 116.818,100.400 116.386 C 100.400 115.418,101.551 115.347,103.223 116.212 C 104.146 116.689,104.594 116.724,105.254 116.371 C 106.448 115.732,107.734 116.510,108.364 118.250 C 108.690 119.153,109.099 119.611,109.533 119.558 C 110.797 119.405,111.608 120.028,111.371 120.971 C 111.234 121.520,111.391 122.061,111.784 122.387 C 112.633 123.091,112.894 122.743,112.944 120.836 C 112.990 119.071,114.084 118.389,115.582 119.190 C 116.643 119.758,117.200 119.702,117.200 119.027 C 117.200 118.127,118.537 117.930,119.929 118.625 C 120.834 119.076,121.200 119.538,121.200 120.229 C 121.200 120.763,121.374 121.200,121.587 121.200 C 121.801 121.200,121.878 121.452,121.760 121.760 C 121.421 122.643,122.375 122.946,123.185 122.213 C 123.683 121.763,124.008 121.689,124.190 121.985 C 124.339 122.225,124.762 122.371,125.130 122.311 C 125.601 122.233,125.838 122.533,125.929 123.321 C 126.015 124.072,126.378 124.563,127.029 124.811 C 128.131 125.230,128.314 126.441,127.391 127.207 C 127.056 127.485,126.880 128.022,127.000 128.400 C 127.120 128.778,126.944 129.315,126.609 129.593 C 125.627 130.408,125.906 130.905,127.237 130.709 C 128.130 130.578,128.528 130.704,128.666 131.164 C 128.772 131.514,129.036 132.129,129.252 132.531 C 129.738 133.433,129.170 134.220,127.784 134.568 C 126.678 134.846,126.539 135.490,127.347 136.596 C 127.878 137.322,127.908 137.319,128.337 136.518 C 128.580 136.064,129.212 135.583,129.742 135.450 C 130.271 135.317,130.804 134.830,130.925 134.367 C 131.114 133.644,131.334 133.565,132.472 133.809 C 134.224 134.185,134.400 134.312,134.400 135.200 C 134.400 135.614,134.581 136.064,134.801 136.201 C 135.022 136.337,135.088 136.908,134.947 137.468 C 134.708 138.422,134.766 138.471,135.859 138.231 C 138.311 137.692,140.589 139.881,138.972 141.223 C 138.606 141.527,138.433 142.084,138.557 142.557 C 138.803 143.497,137.790 144.800,136.814 144.800 C 135.661 144.800,134.526 145.871,135.081 146.434 C 135.675 147.037,135.055 148.400,134.186 148.400 C 133.864 148.400,133.600 148.670,133.600 149.000 C 133.600 149.380,133.983 149.600,134.647 149.600 C 135.499 149.600,135.654 149.750,135.482 150.407 C 135.261 151.255,136.107 152.400,136.955 152.400 C 137.553 152.400,137.503 149.343,136.894 148.734 C 136.315 148.155,137.217 146.000,138.039 146.000 C 138.404 146.000,138.925 145.732,139.197 145.404 C 139.500 145.039,140.044 144.896,140.602 145.036 C 141.946 145.373,142.122 144.648,140.993 143.430 C 139.797 142.140,139.759 141.757,140.775 141.214 C 141.375 140.892,141.504 140.507,141.345 139.499 C 141.034 137.517,144.755 136.310,145.828 138.045 C 146.204 138.653,146.800 138.434,146.800 137.689 C 146.800 136.321,149.178 134.994,149.806 136.010 C 149.946 136.236,150.532 136.371,151.108 136.310 C 151.846 136.233,152.285 136.453,152.594 137.057 C 152.834 137.529,153.294 138.232,153.616 138.619 C 153.937 139.006,154.144 139.655,154.075 140.061 C 153.899 141.098,154.964 140.995,155.742 139.900 C 156.334 139.065,156.412 139.051,156.810 139.700 C 157.046 140.085,157.591 140.400,158.020 140.400 C 158.871 140.400,159.055 141.185,158.366 141.874 C 157.690 142.550,158.107 144.079,159.062 144.430 C 159.878 144.729,159.939 144.597,160.201 141.994 C 160.431 139.701,160.637 139.137,161.433 138.615 C 162.585 137.860,165.600 138.176,165.600 139.051 C 165.600 139.353,165.960 139.600,166.400 139.600 C 167.022 139.600,167.200 139.333,167.200 138.400 C 167.200 137.493,167.383 137.200,167.951 137.200 C 168.364 137.200,168.911 136.949,169.166 136.641 C 169.788 135.891,171.021 136.267,171.791 137.442 C 172.136 137.969,172.700 138.400,173.045 138.400 C 174.084 138.400,175.163 140.065,174.919 141.294 C 174.761 142.091,174.888 142.459,175.385 142.650 C 175.919 142.854,176.013 143.206,175.816 144.256 C 175.520 145.835,176.004 145.989,177.214 144.700 L 178.059 143.800 178.794 144.700 C 179.198 145.195,179.951 145.600,180.468 145.600 C 181.484 145.600,182.659 146.993,181.992 147.405 C 181.322 147.819,181.561 149.076,182.419 149.651 C 183.796 150.574,183.750 152.495,182.315 153.962 C 181.155 155.149,181.124 155.256,181.802 155.752 C 182.647 156.370,182.289 157.200,181.176 157.200 C 180.658 157.200,180.400 157.475,180.400 158.027 C 180.400 158.753,180.607 158.839,182.100 158.727 L 183.800 158.600 183.800 160.082 C 183.800 161.077,184.050 161.748,184.561 162.121 C 185.438 162.764,184.279 164.400,182.946 164.400 C 181.722 164.400,180.377 166.287,180.803 167.407 C 181.303 168.724,181.818 168.660,182.464 167.200 C 182.882 166.255,183.251 165.998,184.198 165.991 C 185.150 165.984,185.532 165.713,186.036 164.691 C 186.786 163.169,187.765 162.863,188.822 163.820 C 189.410 164.352,189.712 164.405,190.139 164.050 C 190.847 163.463,191.687 164.379,191.851 165.916 C 191.914 166.504,192.234 167.182,192.563 167.423 C 192.915 167.680,193.073 168.201,192.946 168.685 C 192.613 169.959,193.394 170.097,194.525 168.966 C 195.515 167.976,197.200 168.098,197.200 169.159 C 197.200 169.340,197.634 169.406,198.165 169.305 C 199.464 169.056,200.093 170.276,199.756 172.387 C 199.543 173.716,199.612 174.000,200.149 174.000 C 200.866 174.000,200.866 174.001,201.026 175.997 C 201.118 177.138,200.914 177.580,199.915 178.415 C 198.824 179.326,198.747 179.526,199.209 180.265 C 199.870 181.325,199.463 182.400,198.400 182.400 C 197.661 182.400,196.855 183.388,197.262 183.795 C 197.350 183.884,198.126 183.797,198.985 183.603 C 201.113 183.123,202.133 183.684,201.810 185.156 C 201.610 186.066,201.744 186.337,202.584 186.720 C 204.106 187.413,204.011 189.585,202.404 190.855 C 201.138 191.855,200.825 192.800,201.760 192.800 C 202.131 192.800,202.320 193.263,202.320 194.173 C 202.320 194.980,202.089 195.634,201.760 195.760 C 201.452 195.878,201.200 196.231,201.200 196.545 C 201.200 197.411,199.414 198.063,197.100 198.042 C 195.862 198.031,195.814 198.113,196.459 199.146 C 196.834 199.746,196.760 200.040,196.059 200.741 C 195.047 201.753,194.571 201.822,194.255 201.000 C 193.959 200.229,192.642 200.226,192.004 200.995 C 191.600 201.482,191.645 201.633,192.255 201.824 C 192.665 201.953,193.313 202.225,193.695 202.429 C 194.077 202.633,194.662 202.800,194.995 202.800 C 196.126 202.800,195.761 205.415,194.500 206.340 C 193.696 206.930,193.518 207.267,193.841 207.594 C 194.330 208.091,194.108 209.979,193.553 210.036 C 192.102 210.186,190.873 210.092,190.394 209.796 C 189.245 209.086,185.891 209.139,186.169 209.862 C 186.306 210.222,186.133 210.832,185.784 211.218 C 184.768 212.341,185.828 212.580,187.485 211.603 C 189.149 210.621,190.538 210.999,190.969 212.550 L 191.205 213.400 191.930 212.466 C 192.329 211.952,192.913 211.575,193.228 211.629 C 193.542 211.682,194.117 211.588,194.505 211.418 C 195.494 210.987,196.400 211.866,196.400 213.259 C 196.400 214.129,196.650 214.515,197.400 214.800 C 198.793 215.330,198.779 217.427,197.374 218.761 C 196.817 219.289,196.454 219.964,196.568 220.261 C 196.889 221.097,196.390 222.000,195.606 222.000 C 194.789 222.000,193.794 223.025,194.305 223.341 C 194.494 223.458,195.314 223.492,196.127 223.417 C 197.809 223.260,198.464 224.385,197.616 225.971 C 197.107 226.921,197.361 227.600,198.224 227.600 C 200.473 227.600,197.929 231.104,195.557 231.274 C 194.009 231.385,193.811 231.506,193.894 232.294 C 193.966 232.977,193.731 233.244,192.894 233.427 C 192.292 233.559,191.572 233.737,191.293 233.823 C 191.015 233.910,190.225 233.638,189.538 233.221 C 188.546 232.617,188.139 232.556,187.555 232.921 C 186.959 233.293,186.716 233.238,186.271 232.629 C 185.487 231.558,184.725 232.151,185.218 233.448 C 185.886 235.205,183.809 236.275,182.330 234.936 C 181.752 234.413,181.386 234.339,180.900 234.645 C 179.789 235.346,179.950 235.775,181.578 236.459 C 183.411 237.229,183.419 238.057,181.610 239.791 C 180.548 240.808,180.521 240.920,181.075 242.031 C 181.868 243.620,182.343 243.499,182.641 241.632 C 182.837 240.411,183.106 240.010,183.859 239.821 C 184.555 239.646,184.806 239.328,184.751 238.689 C 184.602 236.929,184.819 236.472,186.000 236.060 C 186.660 235.830,187.200 235.473,187.200 235.267 C 187.200 234.492,189.313 234.475,190.139 235.243 C 190.993 236.039,192.000 236.252,192.000 235.637 C 192.000 235.438,192.360 235.369,192.800 235.484 C 193.318 235.619,193.600 236.030,193.600 236.647 C 193.600 237.547,193.731 237.662,194.865 237.760 C 195.441 237.810,195.593 235.629,195.073 234.768 C 194.404 233.657,195.779 232.528,197.625 232.674 C 199.040 232.786,199.200 232.704,199.200 231.874 C 199.200 230.334,201.168 229.151,202.537 229.869 C 203.140 230.185,203.971 230.336,204.383 230.205 C 205.327 229.906,206.400 231.334,206.400 232.889 C 206.400 233.610,206.611 234.000,207.000 234.000 C 207.400 234.000,207.600 234.400,207.600 235.200 C 207.600 236.659,208.252 236.762,208.873 235.400 C 209.386 234.273,209.681 234.198,210.926 234.875 C 211.407 235.137,212.137 235.378,212.549 235.412 C 213.529 235.492,214.183 236.700,214.058 238.200 C 213.983 239.112,214.174 239.496,214.853 239.800 C 216.136 240.374,216.245 243.200,214.984 243.200 C 214.336 243.200,213.725 244.908,214.304 245.101 C 215.023 245.341,214.353 246.750,213.459 246.878 C 211.844 247.108,212.456 248.200,214.200 248.200 C 215.791 248.200,215.800 248.209,215.827 249.776 C 215.841 250.642,216.066 251.422,216.327 251.509 C 217.572 251.924,215.861 254.080,214.530 253.772 C 212.898 253.394,211.344 256.158,212.602 257.202 C 213.036 257.562,213.287 257.393,213.805 256.389 C 214.401 255.239,214.586 255.146,215.830 255.379 C 216.976 255.594,217.201 255.519,217.203 254.918 C 217.208 253.779,219.168 253.047,220.057 253.852 C 220.449 254.207,221.033 254.396,221.355 254.273 C 222.332 253.898,223.379 255.888,222.834 257.085 C 222.444 257.941,222.492 258.099,223.192 258.282 C 224.123 258.526,224.194 258.900,223.515 259.987 C 222.811 261.114,223.359 261.379,224.853 260.633 C 226.119 260.002,226.180 260.011,226.978 260.957 C 227.430 261.493,228.187 262.043,228.660 262.180 C 229.819 262.515,229.821 265.016,228.663 266.305 C 228.036 267.004,227.959 267.319,228.325 267.685 C 229.688 269.048,228.048 271.600,225.810 271.600 C 224.572 271.600,224.440 271.715,224.325 272.888 C 224.216 274.011,224.051 274.177,223.035 274.188 C 221.369 274.205,221.346 274.948,222.994 275.543 C 224.455 276.072,224.820 277.020,223.910 277.930 C 223.523 278.317,223.528 278.593,223.934 279.242 C 224.573 280.266,223.086 281.868,221.309 282.073 C 220.699 282.143,220.178 282.425,220.150 282.700 C 220.123 282.975,220.078 283.470,220.050 283.800 C 220.023 284.130,219.676 284.400,219.280 284.400 C 218.884 284.400,218.363 284.597,218.123 284.837 C 217.806 285.154,217.384 285.077,216.594 284.559 C 215.571 283.889,215.472 283.887,215.007 284.522 C 214.394 285.361,213.363 285.402,213.055 284.600 C 212.929 284.270,212.549 284.000,212.213 284.000 C 211.461 284.000,211.459 284.089,212.166 285.780 C 212.757 287.194,212.652 287.600,211.697 287.600 C 211.384 287.600,210.826 287.973,210.456 288.430 C 209.789 289.254,209.776 289.254,208.792 288.485 C 207.174 287.221,206.112 287.043,205.624 287.954 C 205.010 289.102,205.071 289.200,206.400 289.200 C 207.060 289.200,207.600 289.372,207.600 289.581 C 207.600 289.791,208.204 290.249,208.942 290.599 C 211.148 291.646,210.116 295.600,207.637 295.600 C 206.991 295.600,207.106 296.678,207.780 296.937 C 208.281 297.129,208.275 297.327,207.737 298.406 C 207.320 299.243,206.915 299.576,206.507 299.420 C 206.172 299.291,205.676 299.371,205.405 299.596 C 205.061 299.881,204.445 299.811,203.378 299.365 C 202.018 298.797,201.795 298.792,201.406 299.325 C 201.100 299.742,200.767 299.813,200.310 299.558 C 199.443 299.073,199.037 299.748,199.583 300.767 C 199.861 301.288,199.867 301.635,199.601 301.799 C 199.026 302.155,199.105 303.600,199.700 303.597 C 199.975 303.596,200.498 303.072,200.861 302.432 C 201.978 300.470,202.869 300.261,204.350 301.613 C 205.382 302.556,205.677 302.666,205.864 302.177 C 206.710 299.973,210.000 300.349,210.000 302.649 C 210.000 303.583,210.185 304.000,210.600 304.000 C 211.514 304.000,211.336 305.859,210.357 306.545 C 209.885 306.876,209.638 307.338,209.797 307.595 C 209.953 307.847,209.747 308.308,209.340 308.620 C 208.631 309.163,208.637 309.197,209.500 309.440 C 210.627 309.757,210.758 311.847,209.700 312.629 C 208.540 313.486,209.664 314.281,210.855 313.446 C 212.215 312.494,212.692 312.643,213.254 314.200 C 213.694 315.415,213.935 315.600,215.080 315.600 C 216.662 315.600,216.774 315.135,215.374 314.386 C 214.802 314.080,214.252 313.361,214.133 312.764 C 214.008 312.139,213.501 311.501,212.920 311.236 C 212.299 310.954,212.005 310.563,212.143 310.204 C 212.265 309.886,212.193 309.519,211.983 309.389 C 211.369 309.010,211.541 307.529,212.295 306.695 C 212.677 306.273,212.992 305.630,212.995 305.265 C 212.998 304.900,213.225 304.579,213.500 304.551 C 213.775 304.523,214.193 304.478,214.429 304.450 C 215.629 304.310,214.478 302.986,212.996 302.800 C 211.476 302.610,211.405 302.538,211.502 301.300 C 211.557 300.585,211.429 300.000,211.217 300.000 C 210.476 300.000,209.174 298.266,209.598 297.842 C 209.819 297.621,210.000 297.026,210.000 296.520 C 210.000 296.014,210.152 295.600,210.339 295.600 C 210.525 295.600,211.082 295.249,211.576 294.821 C 212.070 294.393,212.682 293.954,212.937 293.846 C 213.238 293.719,213.133 293.435,212.635 293.034 C 211.396 292.034,211.530 289.541,212.857 288.904 C 213.438 288.626,214.019 287.979,214.147 287.467 C 214.492 286.094,216.088 285.485,217.468 286.202 C 218.446 286.709,218.651 286.697,219.322 286.090 C 220.037 285.443,220.114 285.454,220.802 286.303 C 221.202 286.797,221.814 287.200,222.164 287.200 C 222.873 287.200,222.990 286.758,222.435 286.180 C 222.077 285.808,221.862 284.698,221.954 283.700 C 221.979 283.425,222.519 283.200,223.154 283.200 C 223.938 283.200,224.514 282.885,224.952 282.217 C 225.835 280.869,227.993 281.919,227.997 283.700 C 227.999 284.372,228.217 284.800,228.557 284.800 C 228.864 284.800,229.220 285.074,229.348 285.409 C 229.519 285.856,229.771 285.917,230.291 285.638 C 230.681 285.429,231.315 285.161,231.700 285.042 C 232.852 284.685,232.497 284.102,230.900 283.727 C 229.524 283.404,229.390 283.248,229.273 281.846 C 229.160 280.475,229.048 280.336,228.193 280.499 C 227.620 280.609,227.157 280.466,227.033 280.141 C 226.918 279.843,226.549 279.600,226.213 279.600 C 225.505 279.600,225.434 278.888,225.995 277.413 C 226.263 276.709,226.253 276.152,225.964 275.687 C 225.158 274.385,226.119 272.947,227.996 272.647 C 229.284 272.441,229.623 272.227,229.513 271.691 C 229.287 270.592,230.451 269.927,231.285 270.679 C 231.975 271.301,233.200 271.151,233.200 270.445 C 233.200 270.236,232.588 269.687,231.840 269.225 C 229.943 268.052,229.806 265.200,231.646 265.200 C 231.841 265.200,232.000 264.930,232.000 264.600 C 232.000 264.270,231.832 264.000,231.627 264.000 C 230.792 264.000,231.315 261.537,232.223 261.191 C 232.718 261.003,233.240 260.658,233.385 260.425 C 233.726 259.873,235.475 259.875,235.817 260.427 C 235.962 260.662,236.327 260.760,236.628 260.645 C 236.928 260.529,237.281 260.607,237.411 260.817 C 237.866 261.553,238.800 261.204,238.800 260.298 C 238.800 258.963,240.889 258.099,242.295 258.851 C 242.860 259.153,243.652 259.344,244.056 259.276 C 244.564 259.190,244.998 259.589,245.469 260.576 C 245.843 261.359,246.385 262.000,246.674 262.000 C 246.963 262.000,247.200 262.360,247.200 262.800 C 247.200 263.735,247.921 263.872,248.255 263.000 C 248.511 262.333,249.600 262.171,249.600 262.800 C 249.600 263.020,249.968 263.200,250.418 263.200 C 251.133 263.200,251.204 263.373,250.980 264.566 C 250.770 265.683,250.871 266.010,251.536 266.366 C 252.867 267.078,252.783 267.277,252.794 263.363 C 252.798 261.662,254.082 260.509,255.304 261.109 C 257.282 262.082,257.932 262.087,258.070 261.131 C 258.222 260.075,260.817 259.051,261.110 259.931 C 261.200 260.200,261.861 260.665,262.579 260.966 C 263.745 261.453,263.914 261.731,264.156 263.556 C 264.438 265.676,265.046 266.150,266.004 264.995 C 266.371 264.553,266.646 264.506,267.023 264.819 C 267.308 265.056,267.852 265.193,268.233 265.124 C 268.701 265.040,269.024 265.355,269.226 266.092 C 269.391 266.692,269.813 267.470,270.163 267.820 C 270.890 268.547,271.004 269.827,270.377 270.214 C 270.134 270.365,270.062 270.972,270.208 271.638 C 270.367 272.361,270.300 272.800,270.032 272.800 C 269.794 272.800,269.600 273.129,269.600 273.531 C 269.600 274.115,269.840 274.226,270.800 274.085 C 271.797 273.939,272.000 274.046,272.000 274.721 C 272.000 275.168,272.225 275.627,272.500 275.742 C 272.830 275.880,272.600 276.292,271.825 276.951 C 270.722 277.889,270.682 278.020,271.189 279.075 L 271.729 280.200 272.142 279.100 C 272.383 278.458,272.855 278.000,273.277 278.000 C 273.747 278.000,274.000 277.703,274.000 277.153 C 274.000 276.471,274.174 276.353,274.900 276.548 C 275.395 276.681,276.025 276.792,276.300 276.795 C 276.575 276.798,276.800 277.149,276.800 277.576 C 276.800 278.003,276.980 278.464,277.200 278.600 C 277.420 278.736,277.600 279.197,277.600 279.624 C 277.600 280.481,278.017 280.623,278.656 279.984 C 279.379 279.261,281.108 280.947,280.453 281.737 C 280.166 282.082,280.037 282.537,280.167 282.746 C 280.473 283.242,280.026 284.400,279.529 284.400 C 278.841 284.400,277.996 285.524,278.228 286.130 C 278.353 286.454,278.262 286.838,278.027 286.983 C 277.301 287.432,277.556 288.400,278.400 288.400 C 278.840 288.400,279.200 288.651,279.200 288.957 C 279.200 289.573,280.269 290.136,280.555 289.672 C 280.655 289.511,280.529 288.602,280.276 287.652 C 279.777 285.784,280.399 284.800,282.076 284.800 C 282.973 284.800,283.003 284.260,282.154 283.411 C 281.559 282.816,281.560 282.707,282.164 282.040 C 282.524 281.642,282.723 281.064,282.605 280.757 C 282.349 280.091,283.841 279.020,284.205 279.608 C 284.586 280.225,286.064 280.066,286.585 279.353 C 287.420 278.212,289.291 278.968,290.044 280.750 C 290.545 281.937,290.900 282.267,291.644 282.238 C 292.488 282.204,292.585 282.353,292.474 283.500 C 292.311 285.193,293.337 285.268,294.187 283.625 C 295.058 281.940,295.529 281.794,296.662 282.858 C 297.541 283.684,297.722 283.725,298.132 283.190 C 299.345 281.608,300.886 283.571,300.527 286.241 C 300.333 287.690,300.411 287.910,301.192 288.114 C 302.224 288.384,302.037 290.404,300.855 291.743 C 300.495 292.152,300.257 292.828,300.326 293.246 C 300.395 293.664,300.170 294.113,299.826 294.246 C 298.617 294.709,299.065 296.007,300.346 295.751 C 301.802 295.460,302.274 297.058,301.256 298.831 C 300.180 300.705,301.305 301.406,302.644 299.695 C 303.850 298.154,304.685 298.046,305.187 299.366 C 305.641 300.559,306.755 300.949,308.171 300.411 C 309.466 299.919,309.249 299.390,307.619 299.064 C 306.781 298.896,306.347 298.527,306.173 297.835 C 305.984 297.083,305.621 296.816,304.662 296.723 C 303.718 296.631,303.369 296.381,303.276 295.729 C 303.208 295.250,302.893 294.643,302.576 294.380 C 301.768 293.709,301.860 292.651,302.800 291.800 C 303.248 291.395,303.600 290.568,303.600 289.923 C 303.600 288.907,303.729 288.783,304.686 288.885 C 305.457 288.967,305.813 288.797,305.915 288.300 C 306.055 287.620,305.839 287.535,303.700 287.433 C 302.412 287.372,301.866 286.151,302.531 284.819 C 303.163 283.552,303.044 283.200,301.983 283.200 C 301.538 283.200,301.213 282.765,301.050 281.950 C 300.685 280.125,300.720 280.000,301.600 280.000 C 302.129 280.000,302.400 279.733,302.400 279.214 C 302.400 278.141,303.412 277.747,305.900 277.854 C 307.987 277.943,308.375 277.735,307.590 276.950 C 307.309 276.669,307.481 276.213,308.134 275.510 C 309.640 273.884,314.000 274.266,314.000 276.024 C 314.000 276.451,314.270 276.800,314.600 276.800 C 314.930 276.800,315.200 277.070,315.200 277.400 C 315.200 278.306,316.444 278.120,316.690 277.177 C 316.824 276.663,317.123 276.438,317.485 276.577 C 317.804 276.700,318.218 276.800,318.405 276.800 C 318.592 276.800,318.802 277.187,318.872 277.659 C 319.006 278.559,320.183 279.551,320.610 279.123 C 320.747 278.987,320.668 278.185,320.435 277.343 C 319.841 275.190,320.816 274.108,322.542 275.004 C 323.596 275.550,323.727 275.531,324.368 274.740 C 325.169 273.752,326.800 274.657,326.800 276.089 C 326.800 276.480,327.160 277.160,327.600 277.600 C 328.437 278.437,329.200 278.650,329.200 278.047 C 329.200 277.852,329.560 277.599,330.000 277.484 C 331.256 277.156,330.938 276.462,329.400 276.174 C 328.201 275.949,328.000 275.752,328.000 274.804 C 328.000 273.951,327.725 273.583,326.800 273.200 C 325.482 272.654,325.276 271.967,326.200 271.200 C 326.530 270.926,326.800 270.454,326.800 270.151 C 326.800 269.848,327.025 269.573,327.300 269.541 C 327.575 269.508,328.070 269.445,328.400 269.400 C 328.730 269.355,329.405 269.292,329.900 269.259 C 330.514 269.219,330.800 268.945,330.800 268.400 C 330.800 267.614,331.143 267.443,332.465 267.573 C 333.661 267.691,333.740 266.742,332.609 265.840 C 331.625 265.055,331.580 264.915,332.158 264.435 C 332.918 263.804,332.991 262.751,332.320 262.080 C 331.548 261.308,331.200 261.519,331.200 262.757 C 331.200 263.439,330.942 264.013,330.572 264.155 C 330.168 264.311,330.031 264.668,330.188 265.161 C 330.482 266.090,328.692 268.198,327.874 267.884 C 327.574 267.768,327.080 267.827,326.777 268.014 C 326.453 268.214,326.008 268.173,325.696 267.914 C 324.765 267.141,324.116 268.223,324.955 269.150 C 325.619 269.884,325.611 269.947,324.773 270.534 C 324.234 270.911,323.987 271.390,324.135 271.774 C 324.541 272.832,322.813 273.663,321.181 273.195 C 320.424 272.978,319.777 272.800,319.742 272.800 C 319.707 272.800,319.498 273.318,319.277 273.950 C 318.494 276.197,314.127 274.994,313.071 272.240 C 312.739 271.376,312.117 271.433,311.614 272.375 C 311.277 273.004,310.917 273.106,309.699 272.918 C 307.774 272.621,307.843 272.718,307.946 270.445 C 308.030 268.605,307.980 268.500,307.017 268.500 C 305.920 268.500,305.624 269.464,306.463 270.303 C 306.814 270.654,306.807 270.910,306.435 271.357 C 306.076 271.791,306.059 272.163,306.372 272.748 C 307.417 274.701,306.111 276.441,303.469 276.618 C 302.447 276.686,301.508 276.575,301.382 276.371 C 300.818 275.459,300.325 276.077,300.571 277.387 C 300.783 278.518,300.681 278.867,300.016 279.283 C 299.567 279.563,299.200 280.109,299.200 280.496 C 299.200 281.374,297.351 281.461,296.177 280.639 C 295.519 280.178,295.206 280.169,294.427 280.585 C 293.044 281.326,291.340 280.272,291.002 278.468 C 290.794 277.359,290.605 277.158,289.936 277.333 C 288.541 277.698,287.932 277.221,288.205 275.977 C 288.395 275.112,288.270 274.759,287.660 274.432 C 286.944 274.049,286.842 274.170,286.584 275.697 C 286.219 277.853,285.440 278.478,284.035 277.745 C 282.715 277.056,282.400 277.062,282.400 277.776 C 282.400 278.730,281.602 278.929,279.957 278.386 C 278.753 277.988,278.400 277.665,278.400 276.960 C 278.400 276.458,278.228 275.941,278.017 275.811 C 277.807 275.681,277.727 275.333,277.840 275.039 C 278.118 274.315,276.966 273.918,276.437 274.556 C 275.421 275.779,272.557 274.164,273.380 272.832 C 273.508 272.626,273.204 272.399,272.706 272.329 C 271.575 272.168,271.273 270.624,272.178 269.625 C 272.530 269.235,272.713 268.638,272.582 268.298 C 272.452 267.959,272.538 267.562,272.773 267.417 C 273.747 266.815,273.214 266.017,272.000 266.260 C 271.340 266.392,270.786 266.343,270.769 266.150 C 270.715 265.525,270.483 264.615,270.200 263.912 C 269.990 263.388,270.270 263.058,271.374 262.532 C 272.295 262.092,272.747 261.639,272.612 261.287 C 272.495 260.983,272.400 260.569,272.400 260.367 C 272.400 259.699,271.401 259.986,270.893 260.800 C 270.618 261.240,270.056 261.600,269.643 261.600 C 269.218 261.600,268.798 261.963,268.674 262.438 C 268.161 264.400,264.819 262.607,264.671 260.290 C 264.554 258.470,264.293 258.215,263.166 258.818 C 262.418 259.219,262.182 259.190,261.788 258.651 C 261.526 258.293,261.017 258.000,260.656 258.000 C 259.809 258.000,259.776 256.284,260.609 255.593 C 260.969 255.294,261.119 254.775,260.976 254.324 C 260.692 253.429,261.420 252.404,262.349 252.391 C 263.697 252.373,265.023 250.950,264.395 250.194 C 263.831 249.514,264.647 248.400,265.710 248.400 C 266.300 248.400,265.780 247.407,265.167 247.363 C 263.824 247.266,263.685 247.162,263.885 246.398 C 264.111 245.534,263.398 244.400,262.629 244.400 C 262.114 244.400,262.080 246.921,262.581 248.087 C 263.010 249.088,262.257 250.978,261.367 251.134 C 260.945 251.207,260.374 251.558,260.099 251.912 C 259.729 252.387,259.479 252.439,259.150 252.110 C 258.904 251.864,258.458 251.756,258.159 251.871 C 257.527 252.114,258.078 253.443,259.165 254.300 C 259.735 254.749,259.708 254.879,258.902 255.562 C 258.216 256.145,258.059 256.596,258.235 257.477 C 258.562 259.111,257.241 259.793,254.808 259.246 C 253.007 258.842,252.400 258.941,252.400 259.640 C 252.400 260.888,250.850 261.725,249.806 261.041 C 249.240 260.670,248.619 260.465,248.425 260.585 C 247.876 260.924,246.800 260.376,246.800 259.757 C 246.800 259.451,246.444 258.844,246.009 258.409 C 245.574 257.974,245.316 257.362,245.436 257.050 C 245.875 255.906,244.705 255.906,243.770 257.049 C 243.252 257.682,242.822 257.971,242.814 257.691 C 242.806 257.412,242.361 256.983,241.825 256.739 C 240.933 256.332,240.870 256.130,241.081 254.347 C 241.293 252.553,241.244 252.400,240.456 252.400 C 239.783 252.400,239.600 252.642,239.600 253.533 C 239.600 254.157,239.470 254.796,239.312 254.955 C 239.153 255.113,239.077 255.863,239.143 256.621 C 239.220 257.520,239.087 258.000,238.762 258.000 C 238.488 258.000,237.924 258.307,237.509 258.682 C 236.894 259.239,236.613 259.276,235.983 258.882 C 235.558 258.617,235.003 258.400,234.750 258.400 C 234.496 258.400,234.071 258.103,233.805 257.739 C 233.202 256.915,232.404 257.357,232.387 258.524 C 232.356 260.597,228.625 261.116,227.595 259.191 C 227.362 258.756,226.828 258.400,226.409 258.400 C 225.307 258.400,224.398 256.908,224.670 255.548 C 224.836 254.718,224.720 254.344,224.239 254.160 C 223.731 253.965,223.639 253.599,223.835 252.554 C 224.124 251.016,223.673 250.814,222.600 252.000 C 221.679 253.018,220.944 253.016,220.398 251.996 C 220.090 251.420,219.711 251.257,219.059 251.421 C 217.920 251.707,217.045 250.178,217.688 249.028 C 218.007 248.459,217.872 248.104,217.046 247.337 C 215.611 246.007,215.679 244.480,217.243 242.880 C 218.277 241.823,218.378 241.567,217.843 241.361 C 216.858 240.983,217.078 240.046,218.220 239.759 C 219.902 239.337,219.306 238.214,217.396 238.206 C 215.837 238.200,215.800 238.167,215.813 236.800 C 215.821 235.887,215.556 235.179,215.049 234.764 C 214.165 234.042,215.273 232.400,216.644 232.400 C 217.989 232.400,219.124 230.783,218.653 229.536 C 218.105 228.084,217.645 228.097,217.085 229.581 C 216.724 230.537,216.372 230.784,215.235 230.881 C 214.130 230.975,213.784 231.205,213.607 231.962 C 213.276 233.376,212.270 233.879,211.064 233.234 C 210.521 232.944,209.883 232.825,209.646 232.971 C 208.901 233.432,207.504 232.410,207.725 231.566 C 207.835 231.145,207.751 230.800,207.539 230.800 C 207.327 230.800,207.265 230.619,207.402 230.397 C 207.539 230.176,207.360 229.883,207.005 229.746 C 206.527 229.563,206.424 229.200,206.611 228.349 C 206.920 226.944,206.028 226.772,204.800 228.000 C 203.843 228.957,203.460 228.995,202.800 228.200 C 202.526 227.870,201.829 227.599,201.251 227.597 C 200.056 227.593,198.875 225.765,199.600 225.040 C 200.295 224.345,200.057 222.908,199.211 222.687 C 197.892 222.342,198.210 219.662,199.722 218.375 C 200.785 217.470,200.855 217.283,200.324 216.786 C 199.562 216.075,199.867 214.800,200.798 214.800 C 201.628 214.800,202.569 213.797,202.239 213.263 C 202.102 213.042,201.410 213.097,200.527 213.401 C 198.467 214.109,197.463 213.496,197.745 211.700 C 197.910 210.654,197.814 210.400,197.255 210.400 C 195.336 210.400,195.339 207.711,197.261 205.964 C 198.562 204.782,198.707 204.118,197.708 203.925 C 195.938 203.584,198.389 199.200,200.350 199.200 C 200.791 199.200,201.249 199.044,201.367 198.854 C 201.485 198.663,202.035 198.594,202.590 198.700 C 203.729 198.918,203.916 198.361,202.969 197.574 C 202.403 197.105,202.434 196.976,203.269 196.334 C 204.317 195.528,205.200 195.387,205.200 196.027 C 205.200 196.261,205.693 196.396,206.297 196.327 C 207.590 196.177,208.126 194.800,206.891 194.800 C 203.853 194.800,202.700 192.378,204.900 190.618 C 206.159 189.611,206.176 189.560,205.424 188.989 C 204.996 188.665,204.861 188.400,205.124 188.400 C 205.386 188.400,205.600 188.045,205.600 187.612 C 205.600 186.729,207.888 186.546,209.373 187.309 C 210.905 188.096,212.987 187.860,213.128 186.884 C 213.198 186.398,213.423 186.000,213.628 186.000 C 213.833 186.000,214.000 185.640,214.000 185.200 C 214.000 184.201,213.730 184.202,212.090 185.201 C 210.354 186.260,209.821 186.210,208.858 184.900 C 208.082 183.844,208.027 183.830,207.491 184.554 C 206.310 186.148,203.200 185.599,203.200 183.797 C 203.200 183.273,202.779 182.616,202.200 182.237 C 201.464 181.755,201.200 181.229,201.200 180.247 C 201.200 179.290,201.483 178.699,202.200 178.161 C 203.233 177.386,203.541 176.400,202.751 176.400 C 202.061 176.400,203.210 175.176,204.284 174.768 C 205.838 174.177,205.405 173.343,203.592 173.435 C 201.558 173.539,200.782 172.497,201.772 170.987 C 202.577 169.759,202.562 169.600,201.647 169.600 C 200.525 169.600,200.375 168.227,201.345 166.837 C 202.098 165.760,202.432 165.613,204.143 165.607 C 205.993 165.600,206.075 165.554,205.846 164.642 C 205.463 163.115,208.516 162.566,210.328 163.835 C 211.078 164.360,211.342 164.380,211.860 163.950 C 212.384 163.515,212.575 163.551,213.024 164.165 C 213.364 164.631,213.813 164.804,214.248 164.637 C 214.771 164.436,214.823 164.263,214.467 163.907 C 213.104 162.544,215.714 160.455,217.153 161.757 C 218.024 162.546,218.561 162.569,219.163 161.845 C 219.532 161.400,219.324 161.133,218.111 160.497 C 216.370 159.583,216.289 158.696,217.821 157.319 C 219.001 156.257,219.048 155.593,218.030 154.344 C 217.179 153.301,216.937 153.566,216.717 155.784 C 216.630 156.661,216.348 157.027,215.626 157.196 C 214.803 157.388,214.648 157.669,214.626 159.005 C 214.605 160.261,214.436 160.614,213.800 160.726 C 213.360 160.804,212.819 161.096,212.598 161.376 C 211.788 162.401,210.448 162.489,209.198 161.599 C 208.181 160.875,207.961 160.836,207.765 161.346 C 207.394 162.313,205.820 161.517,205.809 160.358 C 205.803 159.696,205.543 159.363,204.967 159.281 C 204.034 159.148,203.717 161.304,204.520 162.320 C 205.212 163.196,203.805 164.200,201.885 164.200 C 200.467 164.200,200.200 164.327,200.200 165.000 C 200.200 166.789,197.781 168.182,196.777 166.972 C 196.473 166.606,195.916 166.433,195.443 166.557 C 194.330 166.848,193.200 165.724,193.200 164.325 C 193.200 163.672,192.941 163.075,192.600 162.945 C 192.270 162.818,192.000 162.314,192.000 161.824 C 192.000 160.406,191.515 160.294,190.551 161.490 C 189.766 162.464,189.555 162.539,188.833 162.100 C 188.381 161.825,187.571 161.600,187.032 161.600 C 185.899 161.600,185.402 160.531,185.565 158.444 C 185.649 157.371,185.544 157.136,185.065 157.320 C 183.535 157.907,183.164 154.924,184.610 153.666 C 185.596 152.808,185.949 151.600,185.213 151.600 C 184.554 151.600,185.229 150.445,186.037 150.188 C 187.451 149.739,186.950 148.726,185.380 148.861 C 183.810 148.996,183.064 148.296,183.451 147.052 C 183.579 146.641,183.465 145.896,183.198 145.396 C 182.593 144.265,183.697 142.928,185.075 143.125 C 186.214 143.287,187.495 141.987,187.405 140.762 C 187.307 139.432,186.268 139.352,185.588 140.623 C 185.108 141.519,184.829 141.644,183.712 141.463 C 182.633 141.288,182.400 141.379,182.400 141.977 C 182.400 143.134,180.178 143.885,179.248 143.043 C 178.845 142.679,178.253 142.481,177.933 142.604 C 177.119 142.917,176.233 141.122,176.559 139.822 C 176.744 139.083,176.643 138.715,176.210 138.548 C 175.536 138.290,175.366 137.200,176.000 137.200 C 176.220 137.200,176.400 136.840,176.400 136.400 C 176.400 135.461,176.148 135.429,174.800 136.200 C 173.424 136.987,173.052 136.939,172.595 135.919 C 172.376 135.432,171.646 134.898,170.957 134.723 C 169.398 134.326,169.275 132.398,170.710 130.846 C 171.333 130.172,171.491 129.731,171.210 129.450 C 169.857 128.097,171.208 125.736,173.549 125.362 C 174.762 125.168,175.215 124.912,175.170 124.446 C 175.028 122.968,175.201 122.707,176.197 122.897 C 177.771 123.198,178.174 122.272,176.746 121.640 C 175.236 120.972,174.940 120.235,175.647 118.908 C 176.081 118.093,176.092 117.833,175.700 117.701 C 174.966 117.455,175.086 116.914,176.100 115.900 C 177.024 114.976,177.150 114.925,178.718 114.846 C 179.222 114.821,179.606 114.575,179.570 114.300 C 179.327 112.429,180.982 111.553,183.013 112.479 C 183.777 112.827,184.135 112.825,184.491 112.469 C 185.144 111.816,186.206 111.884,186.814 112.617 C 187.687 113.669,188.140 112.631,187.418 111.234 C 186.697 109.840,186.874 109.200,187.981 109.200 C 188.384 109.200,188.818 108.930,188.945 108.600 C 189.263 107.770,190.283 107.850,191.491 108.800 C 192.760 109.798,193.458 109.813,193.972 108.853 C 194.448 107.962,194.171 107.600,193.013 107.600 C 192.544 107.600,191.959 107.399,191.714 107.154 C 191.468 106.908,190.851 106.500,190.341 106.246 C 188.662 105.409,188.856 103.072,190.696 101.966 C 191.523 101.468,192.277 101.000,192.371 100.926 C 192.465 100.852,192.233 100.566,191.855 100.289 C 190.783 99.506,192.001 97.235,193.355 97.493 C 193.878 97.593,194.420 97.491,194.560 97.265 C 194.726 96.996,195.189 97.051,195.907 97.425 C 197.212 98.106,198.000 98.160,198.000 97.568 C 198.000 97.297,198.445 97.234,199.200 97.400 C 200.504 97.686,200.841 97.027,199.900 96.030 C 199.500 95.606,199.500 95.463,199.900 95.317 C 200.526 95.087,200.563 93.600,199.942 93.600 C 199.691 93.600,198.914 94.260,198.217 95.067 L 196.949 96.533 195.675 95.780 C 194.974 95.366,194.400 94.886,194.400 94.714 C 194.400 94.541,194.130 94.400,193.800 94.400 C 193.470 94.400,193.200 94.740,193.200 95.155 C 193.200 95.703,192.813 95.984,191.793 96.175 C 189.966 96.518,189.600 96.248,189.600 94.564 C 189.600 93.698,189.374 93.088,189.000 92.945 C 188.132 92.612,188.263 90.941,189.209 90.279 C 189.717 89.923,189.924 89.468,189.766 89.056 C 189.626 88.691,189.711 88.400,189.957 88.400 C 190.731 88.400,190.433 87.302,189.600 87.084 C 188.583 86.818,188.574 85.692,189.582 84.620 C 190.706 83.423,190.061 82.431,188.755 83.347 C 187.344 84.335,186.610 84.152,186.183 82.705 C 185.818 81.472,183.200 80.466,183.200 81.559" stroke="none" fill="#ffffff" fill-rule="evenodd"></path>
</svg>